<svg xmlns="http://www.w3.org/2000/svg" width="48" height="48" viewBox="0 0 48 48"><path fill="#F57C00" d="M3,12L3,12v24c0,2.209,1.791,4,4,4c0,0,32,0,33,0s1-0.996,1-0.996V12H3z"/><path fill="#942A09" d="M40,8H7c-2.209,0-4,1.79-4,3.999C3,14.208,4.791,16,7,16c0,0,32,0,33,0s1,1,1,1V9C41,8.448,40.553,8,40,8z"/><path fill="#4CAF50" d="M7,12v4c7.303,0,32.147,0,33,0c1,0,1,1.002,1,1.002V38h2V16v-3v-1H7z"/><path fill="#C8E6C9" d="M7,14v2c5.509,0,21.052,0,28.683,0c-0.296-0.622-0.497-1.295-0.601-2H7z"/><path fill="#BF360C" d="M45,23h-9c-2.209,0-4,1.791-4,4s1.791,4,4,4h9V23z"/><path fill="#FFECB3" d="M36 25A2 2 0 1 0 36 29A2 2 0 1 0 36 25Z"/></svg>